<?xml version="1.0" encoding="UTF-8"?>
<svg width="90px" height="91px" viewBox="0 0 90 91" version="1.1" xmlns="http://www.w3.org/2000/svg" xmlns:xlink="http://www.w3.org/1999/xlink">
    <!-- Generator: Sketch 42 (36781) - http://www.bohemiancoding.com/sketch -->
    <title>noun_644925_cc</title>
    <desc>Created with Sketch.</desc>
    <defs></defs>
    <g id="Page-1" stroke="none" stroke-width="1" fill="none" fill-rule="evenodd">
        <g id="noun_644925_cc" fill-rule="nonzero" fill="#000000">
            <path d="M87.5,43.5 C86.119,43.5 85,44.619 85,46 C85,68.056 67.056,86 45,86 C22.944,86 5,68.056 5,46 C5,23.944 22.944,6 45,6 C54.176,6 62.876,9.077 69.937,14.73 L62.331,16.768 C60.997,17.125 60.206,18.497 60.563,19.83 C60.862,20.947 61.873,21.684 62.977,21.684 C63.191,21.684 63.409,21.656 63.625,21.599 L75.699,18.364 C76.767,18.078 77.552,17.054 77.552,15.949 L77.552,3.449 C77.552,2.068 76.433,0.949 75.052,0.949 C73.671,0.949 72.552,2.068 72.552,3.449 L72.552,10.43 C64.7,4.321 55.108,1 45,1 C20.187,1 0,21.187 0,46 C0,70.813 20.187,91 45,91 C69.813,91 90,70.813 90,46 C90,44.619 88.881,43.5 87.5,43.5 Z" id="Shape"></path>
            <path d="M45,25.706 C24.122,25.706 15.573,44.188 15.22,44.975 C14.927,45.627 14.927,46.373 15.22,47.025 C15.574,47.812 24.122,66.294 45,66.294 C65.878,66.294 74.427,47.812 74.78,47.025 C75.073,46.373 75.073,45.627 74.78,44.975 C74.427,44.188 65.878,25.706 45,25.706 Z M45,61.294 C29.801,61.294 22.265,49.607 20.301,46.001 C22.268,42.388 29.805,30.706 45,30.706 C60.194,30.706 67.731,42.387 69.699,46 C67.731,49.613 60.194,61.294 45,61.294 Z" id="Shape"></path>
            <path d="M45,36 C39.486,36 35,40.486 35,46 C35,51.514 39.486,56 45,56 C50.514,56 55,51.514 55,46 C55,40.486 50.514,36 45,36 Z M45,51 C42.243,51 40,48.757 40,46 C40,43.243 42.243,41 45,41 C47.757,41 50,43.243 50,46 C50,48.757 47.757,51 45,51 Z" id="Shape"></path>
        </g>
    </g>
</svg>