<?xml version="1.0" encoding="UTF-8"?>
<svg width="54px" height="88px" viewBox="0 0 54 88" version="1.1" xmlns="http://www.w3.org/2000/svg" xmlns:xlink="http://www.w3.org/1999/xlink">
    <!-- Generator: Sketch 42 (36781) - http://www.bohemiancoding.com/sketch -->
    <title>noun_318728_cc</title>
    <desc>Created with Sketch.</desc>
    <defs></defs>
    <g id="Page-1" stroke="none" stroke-width="1" fill="none" fill-rule="evenodd">
        <g id="noun_318728_cc" transform="translate(0.000000, -1.000000)" fill-rule="nonzero" fill="#000000">
            <g id="Group" transform="translate(0.000000, 0.637820)">
                <path d="M17,0.36218 C16.057191,0.36218 15,1.3735118 15,2.36218 L15,12.36218 C14.98506,13.418805 15.943269,14.390664 17,14.390664 C18.056731,14.390664 19.014943,13.418805 19,12.36218 L19,2.36218 C19,1.2273664 17.942809,0.36218 17,0.36218 Z M3.84375,5.33093 C2.459049,5.42831 1.550166,7.264625 2.3125,8.42468 L7.3125,16.42468 C7.824015,17.397666 9.218462,17.772253 10.148683,17.186559 C11.078904,16.600864 11.343821,15.181492 10.6875,14.29968 L5.6875,6.29968 C5.31244,5.67316 4.572467,5.284361 3.84375,5.33093 Z M29.90625,5.33093 C29.260706,5.37045 28.644805,5.744826 28.3125,6.29968 L23.3125,14.29968 C22.656179,15.181492 22.921096,16.600864 23.851317,17.186559 C24.781538,17.772253 26.175985,17.397666 26.6875,16.42468 L31.6875,8.42468 C32.090496,7.809842 32.114851,6.967253 31.74804,6.330163 C31.381233,5.693074 30.640311,5.291099 29.90625,5.33093 Z M17,18.36218 C13.156595,18.36218 10,21.51876 10,25.36218 L10,40.51843 C7.870612,40.707 5.672659,41.37872 3.8125,42.79968 C1.660803,44.44338 0,47.09528 0,50.36218 L0,64.36218 C0,70.71648 3.765856,75.03648 7.09375,78.36218 C8.757697,80.02498 10.329922,81.49493 11.40625,82.83093 C12.482578,84.16683 13,85.27798 13,86.36218 C13.000105,87.409349 13.952831,88.362075 15,88.36218 L41,88.36218 C41.313643,88.361666 41.626909,88.28605 41.90625,88.14343 C50.556928,83.81813 54,75.97398 54,68.36218 L54,52.36218 C54,48.51878 50.843405,45.36218 47,45.36218 C45.893026,45.36218 44.871516,45.64748 43.9375,46.11218 C43.795819,42.39028 40.7543,39.36218 37,39.36218 C35.893025,39.36218 34.871516,39.64748 33.9375,40.11218 C33.795819,36.39029 30.754296,33.36218 27,33.36218 C25.917881,33.36218 24.918106,33.6356 24,34.08093 L24,25.36218 C24,21.51876 20.843405,18.36218 17,18.36218 Z M17,22.36218 C18.696595,22.36218 20,23.66556 20,25.36218 L20,40.36218 C20.01467,41.399952 20.962124,42.334101 22,42.334101 C23.037876,42.334101 23.985327,41.399952 24,40.36218 C24,38.66559 25.303405,37.36218 27,37.36218 C28.696595,37.36218 30,38.66559 30,40.36218 L30,46.36218 C30.01467,47.399952 30.962124,48.334101 32,48.334101 C33.037876,48.334101 33.985327,47.399952 34,46.36218 C34,44.66558 35.30341,43.36218 37,43.36218 C38.69659,43.36218 40,44.66558 40,46.36218 L40,52.36218 C40.01467,53.399952 40.962124,54.334101 42,54.334101 C43.037876,54.334101 43.985327,53.399952 44,52.36218 C44,50.66558 45.303405,49.36218 47,49.36218 C48.696595,49.36218 50,50.66558 50,52.36218 L50,68.36218 C50,74.74088 47.472249,80.67258 40.375,84.36218 L16.5625,84.36218 C16.14681,82.88028 15.477614,81.50553 14.53125,80.33093 C13.170078,78.64133 11.492303,77.13468 9.90625,75.54968 C6.734144,72.37968 4,69.16248 4,64.36218 L4,50.36218 C4,48.38978 4.880016,47.03368 6.25,45.98718 C7.3359,45.15768 8.71882,44.70473 10,44.51843 L10,47.36218 C9.98506,48.418803 10.943272,49.390657 12,49.390657 C13.056728,49.390657 14.01494,48.418803 14,47.36218 L14,25.36218 C14,23.66556 15.303405,22.36218 17,22.36218 Z" id="Shape"></path>
            </g>
        </g>
    </g>
</svg>