<?xml version="1.0" encoding="UTF-8"?>
<svg width="15px" height="12px" viewBox="0 0 15 12" version="1.1" xmlns="http://www.w3.org/2000/svg" xmlns:xlink="http://www.w3.org/1999/xlink">
    <!-- Generator: Sketch 42 (36781) - http://www.bohemiancoding.com/sketch -->
    <title>noun_711446_cc</title>
    <desc>Created with Sketch.</desc>
    <defs></defs>
    <g id="Page-1" stroke="none" stroke-width="1" fill="none" fill-rule="evenodd">
        <g id="noun_711446_cc" fill-rule="nonzero" fill="#7E43E5">
            <g id="Group" transform="translate(0.000000, 0.159455)">
                <path d="M13.9675025,0.08569 C13.7732201,0.0974744132 13.5911264,0.184319128 13.45969,0.3278775 C10.80636,3.1039525 7.8181075,6.52545 5.162815,9.335675 L1.45187725,6.49975 C1.2386431,6.33345089 0.952402696,6.2948019 0.70270007,6.39859396 C0.452997445,6.50238603 0.278492439,6.73254971 0.245968021,7.00100149 C0.213443603,7.26945327 0.327935318,7.5346305 0.54562725,7.69505 L4.7956275,10.94505 C5.09849218,11.1737769 5.52448073,11.1402345 5.787815,10.866925 C8.58612,7.939225 11.78054,4.2517675 14.537815,1.36694 C14.7589165,1.1474722 14.821343,0.814181496 14.694657,0.529571864 C14.567971,0.244962232 14.2785477,0.0682876101 13.9675025,0.08569 L13.9675025,0.08569 Z" id="Shape"></path>
            </g>
        </g>
    </g>
</svg>