<?xml version="1.0" encoding="UTF-8"?>
<svg width="59px" height="44px" viewBox="0 0 59 44" version="1.1" xmlns="http://www.w3.org/2000/svg" xmlns:xlink="http://www.w3.org/1999/xlink">
    <!-- Generator: Sketch 42 (36781) - http://www.bohemiancoding.com/sketch -->
    <title>noun_711446_cc</title>
    <desc>Created with Sketch.</desc>
    <defs></defs>
    <g id="Page-1" stroke="none" stroke-width="1" fill="none" fill-rule="evenodd">
        <g id="noun_711446_cc" transform="translate(-1.000000, -1.000000)" fill-rule="nonzero" fill="#7E43E5">
            <g id="Group" transform="translate(0.000000, 0.637820)">
                <path d="M55.87001,0.34276 C55.0928804,0.389897653 54.3645054,0.737276513 53.83876,1.31151 C43.22544,12.41581 31.27243,26.1018 20.65126,37.3427 L5.807509,25.999 C4.95457242,25.3338036 3.80961078,25.1792076 2.81080028,25.5943759 C1.81198978,26.0095441 1.11396975,26.9301988 0.983872083,28.004006 C0.853774412,29.0778131 1.31174127,30.138522 2.182509,30.7802 L19.18251,43.7802 C20.3939687,44.6951074 22.0979229,44.5609378 23.15126,43.4677 C34.34448,31.7569 47.12216,17.00707 58.15126,5.46776 C59.035666,4.5898888 59.2853721,3.25672598 58.7786281,2.11828746 C58.2718841,0.979848928 57.114191,0.27315044 55.87001,0.34276 L55.87001,0.34276 Z" id="Shape"></path>
            </g>
        </g>
    </g>
</svg>