<?xml version="1.0" encoding="UTF-8"?>
<svg width="98px" height="112px" viewBox="0 0 98 112" version="1.1" xmlns="http://www.w3.org/2000/svg" xmlns:xlink="http://www.w3.org/1999/xlink">
    <!-- Generator: Sketch 42 (36781) - http://www.bohemiancoding.com/sketch -->
    <title>noun_885362_cc</title>
    <desc>Created with Sketch.</desc>
    <defs></defs>
    <g id="Page-1" stroke="none" stroke-width="1" fill="none" fill-rule="evenodd">
        <g id="noun_885362_cc" fill-rule="nonzero" fill="#000000">
            <g id="Group">
                <path d="M18.4,30.3 L33.1,30.3 L33.1,26.3 L20.4,26.3 L20.4,11.2 L33,11.2 L33,7.2 L18.4,7.2 C17.3,7.2 16.4,8.1 16.4,9.2 L16.4,28.3 C16.4,29.4 17.3,30.3 18.4,30.3 Z" id="Shape"></path>
                <path d="M81.6,28.3 L81.6,9.2 C81.6,8.1 80.7,7.2 79.6,7.2 L64.9,7.2 L64.9,11.2 L77.6,11.2 L77.6,26.3 L64.9,26.3 L64.9,30.3 L79.6,30.3 C80.7,30.3 81.6,29.4 81.6,28.3 Z" id="Shape"></path>
                <path d="M91.6,0.6 L88.2,0.6 L9.8,0.6 L6.4,0.6 C3.2,0.6 0.7,3.2 0.7,6.3 C0.7,9.4 3.3,12 6.4,12 L7.8,12 L7.8,36.8 C7.8,37.9 8.7,38.8 9.8,38.8 L33.4,38.8 L31.7,50.1 C31.4,51.8 31.3,53.5 31.3,55.2 L31.3,60.1 C31.3,60.8 31.7,61.5 32.3,61.9 L32.5,62 C33.1,62.3 33.8,62.6 34.4,62.7 C32.4,66.2 31.2,70.2 31.2,74.3 L31.2,78 C31.2,81.5 32.5,84.8 35,87.3 L40.1,92.5 C40.8,93.2 41.3,93.9 41.8,94.8 L50.9,111.4 L54.4,109.5 L45.3,92.9 C44.7,91.7 43.9,90.7 43,89.8 L37.9,84.6 C36.2,82.9 35.2,80.5 35.2,78.1 L35.2,74.5 C35.2,70.3 36.6,66.2 39.2,62.9 L40.9,60.7 C43.9,56.8 45.5,52 45.5,47.1 L45.5,34.1 C45.5,32 47.1,30.3 49.2,30.3 C51.3,30.3 53,32 53,34.1 L53,49 C53,52 53.5,55 54.6,57.9 L57.6,66 L61.3,64.6 L58.3,56.5 C57.5,54.1 57,51.5 57,49 L57,38.9 L72,38.9 L75.2,45.5 C75.7,46.7 75.9,47.9 75.7,49.2 L70.9,82.6 C70.6,84.5 70.9,86.4 71.8,88.2 L77,98.3 L80.6,96.5 L75.4,86.4 C74.9,85.4 74.7,84.3 74.9,83.2 L79.7,49.8 C80,47.8 79.7,45.8 78.9,43.9 L76.5,39 L88.2,39 C89.3,39 90.2,38.1 90.2,37 L90.2,12.1 L91.6,12.1 C94.8,12.1 97.3,9.5 97.3,6.4 C97.3,3.3 94.8,0.6 91.6,0.6 Z M6.4,8.1 C5.4,8.1 4.7,7.3 4.7,6.4 C4.7,5.5 5.5,4.7 6.4,4.7 L7.8,4.7 L7.8,8.2 L6.4,8.2 L6.4,8.1 Z M37.9,58.1 L37.4,58.7 C36.7,59 36,59 35.3,58.9 L35.3,55.3 C35.3,53.8 35.4,52.3 35.6,50.8 L37.4,38.9 L41.6,38.9 L41.6,47 C41.7,51 40.3,55 37.9,58.1 Z M48.7,26.3 C44.5,26.3 41.1,22.9 41.1,18.7 C41.1,14.5 44.5,11.1 48.7,11.1 C52.9,11.1 56.3,14.5 56.3,18.7 C56.3,22.9 52.9,26.3 48.7,26.3 Z M86.2,34.9 L57,34.9 L57,34.2 C57,32.1 56.1,30.1 54.7,28.7 C58,26.7 60.3,23 60.3,18.8 C60.3,12.4 55.1,7.2 48.7,7.2 C42.3,7.2 37.1,12.4 37.1,18.8 C37.1,23.3 39.7,27.2 43.4,29.1 C42.2,30.5 41.5,32.2 41.5,34.2 L41.5,34.9 L11.8,34.9 L11.8,4.6 L86.1,4.6 L86.1,34.9 L86.2,34.9 Z M91.6,8.1 L90.2,8.1 L90.2,4.6 L91.6,4.6 C92.6,4.6 93.3,5.4 93.3,6.3 C93.3,7.2 92.6,8.1 91.6,8.1 Z" id="Shape"></path>
            </g>
        </g>
    </g>
</svg>