<?xml version="1.0" encoding="UTF-8"?>
<svg width="315px" height="453px" viewBox="0 0 315 453" version="1.1" xmlns="http://www.w3.org/2000/svg" xmlns:xlink="http://www.w3.org/1999/xlink">
    <!-- Generator: Sketch 42 (36781) - http://www.bohemiancoding.com/sketch -->
    <title>noun_945748_cc</title>
    <desc>Created with Sketch.</desc>
    <defs></defs>
    <g id="Page-1" stroke="none" stroke-width="1" fill="none" fill-rule="evenodd">
        <g id="noun_945748_cc" transform="translate(-1.000000, -1.000000)" fill-rule="nonzero" fill="#FFC463">
            <g id="Group" transform="translate(0.134410, 0.535600)">
                <path d="M157.98939,0.4644 C80.27669,0.4644 17.04699,63.69347 17.04699,141.40672 L17.04699,226.6845 C6.77349,247.56274 0.86559,270.96669 0.86559,295.77989 C0.86559,382.56616 71.20489,452.90403 157.98939,452.90403 C244.77619,452.90403 315.11429,382.56616 315.11429,295.77989 C315.11429,270.96669 309.16379,247.56274 298.93169,226.6845 L298.93169,141.40672 C298.93169,63.69347 235.70319,0.4644 157.98939,0.4644 L157.98939,0.4644 Z M157.98939,54.02587 C206.16709,54.02587 245.37119,93.22958 245.37119,141.40672 L245.37119,165.19387 C220.34969,148.45828 190.34279,138.65619 157.98939,138.65619 C125.67849,138.65619 95.58759,148.41676 70.60869,165.19387 L70.60869,141.40672 C70.60869,93.22958 109.81279,54.02587 157.98939,54.02587 Z M157.98939,237.12137 C174.64279,237.12137 188.00689,250.44621 188.00689,267.05787 C188.00689,276.70986 183.59989,285.17352 176.59909,290.68286 L184.20429,354.43873 L131.85609,354.43873 L139.54289,290.68286 C132.58349,285.13201 127.97299,276.70986 127.97299,267.05787 C127.97299,250.44621 141.33719,237.12137 157.98939,237.12137 L157.98939,237.12137 Z" id="Shape"></path>
            </g>
        </g>
    </g>
</svg>