<?xml version="1.0" encoding="UTF-8"?>
<svg width="58px" height="58px" viewBox="0 0 58 58" version="1.1" xmlns="http://www.w3.org/2000/svg" xmlns:xlink="http://www.w3.org/1999/xlink">
    <!-- Generator: Sketch 42 (36781) - http://www.bohemiancoding.com/sketch -->
    <title>Shape</title>
    <desc>Created with Sketch.</desc>
    <defs></defs>
    <g id="Page-1" stroke="none" stroke-width="1" fill="none" fill-rule="evenodd">
        <g id="Artboard" transform="translate(-54.000000, -12.000000)" fill-rule="nonzero" fill="#000000">
            <g id="noun_495546_cc" transform="translate(54.000000, 12.000000)">
                <path d="M37.8,34 L37.8,28.7 C37.8,23.2 33.3,18.7 27.8,18.7 C22.3,18.7 17.8,23.2 17.8,28.7 C17.8,34.2 22.3,38.7 27.8,38.7 C28.8,38.7 29.8,38.6 30.7,38.3 C31.9,37.9 33.1,38.6 33.5,39.8 C33.9,41 33.2,42.2 32,42.6 C30.7,43 29.2,43.2 27.8,43.2 C19.8,43.2 13.3,36.7 13.3,28.7 C13.3,20.7 19.8,14.2 27.8,14.2 C31.7,14.2 35.2,15.7 37.8,18.3 L37.8,17.7 C37.8,16.5 38.8,15.5 40,15.5 C41.2,15.5 42.2,16.5 42.2,17.7 L42.2,34 C42.2,37.7 44.3,39.3 46.3,39.3 C49.4,39.3 52.6,35.7 52.6,28.7 C52.6,15.4 41.8,4.6 28.5,4.6 C15.2,4.6 4.4,15.4 4.4,28.7 C4.4,42 15.3,52.8 28.6,52.8 C32.5,52.8 36.4,51.8 39.8,50 C40.9,49.4 42.2,49.8 42.8,50.9 C43.4,52 43,53.3 41.9,53.9 C37.8,56.1 33.2,57.2 28.6,57.2 C12.8,57.2 0,44.4 0,28.6 C0,12.8 12.8,0 28.6,0 C44.4,0 57.2,12.8 57.2,28.6 C57.2,38.9 51.6,43.6 46.4,43.6 C44.1,43.6 41.9,42.7 40.3,40.9 C38.6,39.3 37.8,36.8 37.8,34 Z" id="Shape"></path>
            </g>
        </g>
    </g>
</svg>